<svg xmlns="http://www.w3.org/2000/svg" viewBox="0 0 260 52"><defs><style>.cls-1{fill:#fff;}</style></defs><title>Asset 2</title><g id="Layer_2" data-name="Layer 2"><g id="Layer_1-2" data-name="Layer 1"><path class="cls-1" d="M41.89.3l5.63,11L54.69,1.24h5.49l-1.38.7L44.05,22.74H38.56l1.37-.69L47.07,12,44.63,7.21H37.69Zm48.37,1-1.37.69v20.8H83.4l1.37-.69V12.39h-1c-3.2,0-4.69.84-5.63,6a37.53,37.53,0,0,1-1.09,4.33h-5.2l1.63-.82a33.63,33.63,0,0,0,1.09-4.18,13.45,13.45,0,0,1,2.61-6.48,5.45,5.45,0,0,1,2.91-10ZM84.77,8.66V4.73H80.13a2,2,0,0,0,0,3.93Zm26.55-7.41,1.37.7v20.8h5.49l-1.37-.7V1.25Zm27.92,0,1.37.7v20.8h5.49l-1.37-.7V2h4.33l3.17,6.26,4.12-7Zm33.4,0L174,2v20.8h5.49l-1.37-.7V2h4.33l3.17,6.26,4.12-7Zm43.87,21.5-1.37-.7V1.25h-5.49L211,2v20.8ZM25.11,51.8h1.72L30,35.42H28l-1,6q0,.21-.09.51c0,.19-.07.39-.1.62l-.37,2.49L26.09,47c0,.09,0,.19,0,.32s0,.27-.06.44l-.1-.81q0-.4-.12-.9c0-.33-.09-.7-.15-1.1l-.35-2.38-.16-1.09-1-6H22ZM52.57,35.42V51.8h5.78V49.93H54.74V44.34h3.2V42.47h-3.2V37.29h3.61V35.42ZM81.29,51.8h2.14l-.11-7.14c0-.21,0-.39,0-.55s0-.3,0-.42l-.11-2L83.06,40a2.23,2.23,0,0,0,0-.33c0-.13,0-.29,0-.47,0,.18.08.34.11.49s0,.26.07.36c.17.79.35,1.54.55,2.26s.41,1.43.63,2.12l2.44,7.37h2V35.42H86.63v6.11c0,.91,0,1.87.13,2.9s.21,2.17.38,3.43A60,60,0,0,0,85.48,42l-2.16-6.53h-2Zm30.09-16.38v1.93h2.51V51.8H116V37.35h2.43V35.42ZM141,47a7.3,7.3,0,0,0,.62,3.63A3.35,3.35,0,0,0,144.71,52a3.77,3.77,0,0,0,2.94-1.07c.54-.63.8-1.84.8-3.62V35.42h-2.13V47.31a4.64,4.64,0,0,1-.31,2.11,1.35,1.35,0,0,1-1.26.51,1.31,1.31,0,0,1-1.27-.58,5.74,5.74,0,0,1-.32-2.36V35.42H141Zm33-4.31a2.25,2.25,0,0,0,1.78-.6,3,3,0,0,0,.53-2,7,7,0,0,0-.11-1.31,2.45,2.45,0,0,0-.35-.88,1.49,1.49,0,0,0-.61-.5,2.3,2.3,0,0,0-.88-.16h-.36Zm-2.18-7.26h2.87a3.63,3.63,0,0,1,2.64.86,4.68,4.68,0,0,1,1.1,3.4,5.87,5.87,0,0,1-.58,2.83,2.5,2.5,0,0,1-1.66,1.32l3,8H177l-3-8v8h-2.18Zm30.12,0V51.8h5.79V49.93h-3.61V44.34h3.2V42.47h-3.2V37.29h3.61V35.42Zm32-.22a3.41,3.41,0,0,0-2.67,1.13,4.51,4.51,0,0,0-1,3.05,5,5,0,0,0,.5,2.35,7.75,7.75,0,0,0,.81,1.12c.36.42.82.91,1.37,1.46.35.36.65.69.89,1a6.4,6.4,0,0,1,.55.78,3.27,3.27,0,0,1,.39,1.6,2.48,2.48,0,0,1-.5,1.63,1.72,1.72,0,0,1-1.39.6,3.71,3.71,0,0,1-2.12-.86v2.18a3.72,3.72,0,0,0,2.38.78,3.42,3.42,0,0,0,2.7-1.2A4.6,4.6,0,0,0,237,47.67a5.25,5.25,0,0,0-.48-2.36,9.53,9.53,0,0,0-1.81-2.37c-.48-.49-.87-.9-1.18-1.25a6.68,6.68,0,0,1-.65-.85,2.69,2.69,0,0,1-.39-1.47,2.21,2.21,0,0,1,.55-1.56,1.79,1.79,0,0,1,1.4-.62,3.19,3.19,0,0,1,1.79.72V35.76A4.75,4.75,0,0,0,234,35.2m20.48-20.09.39.69h0c-1.22,3.31-4,5.62-7.2,5.62-4.35,0-7.88-4.22-7.88-9.43s3.53-9.43,7.88-9.43c3.21,0,6,2.31,7.19,5.61h0l-.39.69H260l-.46-.7-.69-1.33a11.93,11.93,0,0,0-4.26-4.94,11.68,11.68,0,0,0-14.77,1.6,12.1,12.1,0,0,0,0,17,11.69,11.69,0,0,0,14.77,1.59,11.91,11.91,0,0,0,4.26-4.93l.69-1.34.46-.69h-5.48Zm-236.35,0,.39.7h0c-1.22,3.31-4,5.62-7.2,5.62C7,21.42,3.48,17.2,3.48,12S7,2.56,11.35,2.56c3.22,0,6,2.31,7.2,5.62h0l-.39.69h5.48l-.46-.69L22.5,6.85a12,12,0,0,0-4.26-4.93A11.7,11.7,0,0,0,3.46,3.51a12.12,12.12,0,0,0,0,17,11.67,11.67,0,0,0,14.78,1.59,11.92,11.92,0,0,0,4.26-4.93l.69-1.33.46-.7H18.17Z"/></g></g></svg>